<svg id="Layer_1" data-name="Layer 1" xmlns="http://www.w3.org/2000/svg" viewBox="0 0 142.26 249.86"><defs><style>.cls-1{fill:#eb9e22;}.cls-2{fill:#1a3a4c;}.cls-3{fill:#fff;}</style></defs><title>brand-football</title><path class="cls-1" d="M144.38,125.69A52.83,52.83,0,0,0,125.14,95a22.61,22.61,0,0,1-.18,19.46,15.18,15.18,0,0,1-7,7.28,8.3,8.3,0,0,1-9.55-1.67c-5.38-5.36-1.73-13.71-.38-19.89,1.69-7.8.1-16.06-3.25-23.3S96.37,63.29,91,57.39C86.13,52,80.7,46.5,79.5,39.36c-1.67-10,5.5-19.13,12.21-26.75A59.93,59.93,0,0,0,70,29.8a23.23,23.23,0,0,0-4.83,9.1c-1.45,6.63,1.94,13.35,6,18.79s9,10.42,11.38,16.77c2,5.33,2,11.56-.79,16.54s-8.53,8.35-14.18,7.64h-.07A5.57,5.57,0,0,1,63,91.57a18.53,18.53,0,0,0-.14-11.8,23,23,0,0,0-6.18-8.24,59.8,59.8,0,0,0-24.1-13.62C40.4,64.4,48.9,72.29,48.8,82.45,48.73,89.68,44.21,96,40.23,102c-7.67,11.65-15.34,27.42-11.15,41.84,1.88,6.5,5.16,12.07,6,18.95a2.73,2.73,0,0,0,.51,1.54,2.67,2.67,0,0,0,.7.49c15,8.09,27,23,43.44,28.08a119.65,119.65,0,0,0,24.62,4.56c6.82-2.71,13.57-5.66,20.46-8.13-.11-.36-.21-.71-.32-1.06a73.2,73.2,0,0,0,17-26.25A64.89,64.89,0,0,0,144.38,125.69Z" transform="translate(-15.95 -12.61)"/><path class="cls-2" d="M80,257.92v1.57c0,1.89-.95,3-2.77,3s-2.77-1.08-2.77-3v-6.14c0-1.89,1-3,2.77-3s2.77,1.08,2.77,3v1.14H78.23v-1.26c0-.85-.37-1.17-1-1.17s-1,.32-1,1.17v6.37c0,.85.37,1.15,1,1.15s1-.3,1-1.15v-1.68Z" transform="translate(-15.95 -12.61)"/><path class="cls-2" d="M81.12,250.51H83v10.12H86v1.69H81.12Z" transform="translate(-15.95 -12.61)"/><path class="cls-2" d="M88.61,250.51v9.11c0,.85.37,1.15,1,1.15s1-.3,1-1.15v-9.11h1.76v9c0,1.89-1,3-2.77,3s-2.77-1.08-2.77-3v-9Z" transform="translate(-15.95 -12.61)"/><path class="cls-2" d="M99.1,253.23v.42A2.33,2.33,0,0,1,97.91,256a2.39,2.39,0,0,1,1.38,2.53v1a2.51,2.51,0,0,1-2.82,2.8H93.55V250.51h2.8C98.28,250.51,99.1,251.41,99.1,253.23Zm-3.69-1v3.12h.73c.69,0,1.11-.3,1.11-1.25v-.66c0-.84-.29-1.21-1-1.21Zm0,4.81v3.62h1.06c.63,0,1-.28,1-1.16v-1c0-1.1-.35-1.43-1.19-1.43Z" transform="translate(-15.95 -12.61)"/><circle class="cls-3" cx="70.25" cy="173.3" r="56.51"/><path class="cls-2" d="M111.75,232.87l.42-.26a53.22,53.22,0,0,0,25.2-31.25l.07,0,.27-1.08c0-.08.09-.38.2-.86A53.29,53.29,0,0,0,139.58,188a36.67,36.67,0,0,0-.74-11.3h0a2.17,2.17,0,0,0-.07-.24,53.26,53.26,0,0,0-22.69-34.78h0l-.42-.29h0l-.42-.28c-.08-.05-.55-.36-1.36-.83a53.14,53.14,0,0,0-18.91-6.95l-1.25-.22-1-.17-.08.06a53.36,53.36,0,0,0-40.49,11.94l-.09.06a44.23,44.23,0,0,0-9.6,10.5,53.76,53.76,0,0,0-3.79,6.33c-.56,1.09-.89,1.79-.94,1.91l-.44,1,0,0a53.7,53.7,0,0,0-1.91,37.38l-.1.14.51,1.17,0,.1a52.87,52.87,0,0,0,9.58,16.83A28,28,0,0,0,47.69,223c.27.27.53.51.79.74h0a53.25,53.25,0,0,0,39.7,15.58l.06.06,1-.08,1.42-.13a53.72,53.72,0,0,0,16.4-4A37.69,37.69,0,0,0,111.75,232.87ZM96.66,216.23l-3.24-10.64,12.67-16.67,11.83.61,5.82,13.07-12.28,16.07Zm21.43-31.17-11.85-.61L94.87,168.07l4.59-12,13.88-1.82,11.44,18.25ZM95.24,154.58l-4.45,11.63-19.79,6-9.08-8.32,3.38-13,19.94-6.25ZM59,167.27l9.33,8.55-.43,19.76-10.41,5.94-11.8-7.31.64-20.64Zm.84,38.06,10.24-5.84L88.88,206l3.56,11.67-10.65,9.5-20.25-7.76Zm61,15.2a49.76,49.76,0,0,1-7.11,5.88l.85-4.48,12.32-16.12,4.91-2.09A48.58,48.58,0,0,1,120.85,220.53Zm0-69.2a48.61,48.61,0,0,1,12.46,21.27c-1.25-.67-2.8-1.47-4.73-2.46l-11.4-18.2-.46-4.29A49.18,49.18,0,0,1,120.85,151.33Zm-33.2-14.28-4,3.35-18.21,5.7-6.36-.86A49,49,0,0,1,87.65,137.05ZM40,170.06l1.92,3.79-.62,20-2.57,3.58A49.3,49.3,0,0,1,40,170.06ZM55.44,224l4.47-.33,20.46,7.83,3.32,3.32A48.76,48.76,0,0,1,55.44,224Z" transform="translate(-15.95 -12.61)"/><path class="cls-2" d="M18.44,247.08l2.31-4a25.2,25.2,0,0,0,0-25.25l-2.31-4h137l-1.57,2.25a25.28,25.28,0,0,0,0,28.71l1.57,2.25Z" transform="translate(-15.95 -12.61)"/><path class="cls-3" d="M152.73,215.3h0a26.59,26.59,0,0,0,0,30.35H20.93L22,243.82a26.58,26.58,0,0,0,0-26.69l-1.06-1.83Zm0-2.86H16l2.5,4.3,1.06,1.83a23.8,23.8,0,0,1,0,23.82l-1.06,1.82L16,248.52H158.21l-3.13-4.5a23.86,23.86,0,0,1,0-27.08l3.13-4.5Z" transform="translate(-15.95 -12.61)"/><path class="cls-3" d="M53.35,229.45H57.1v2.64H53.35v7.63h-2.9V221.24h7.68v2.64H53.35Z" transform="translate(-15.95 -12.61)"/><path class="cls-3" d="M59.29,225.67c0-3,1.56-4.65,4.41-4.65s4.41,1.69,4.41,4.65v9.61c0,3-1.55,4.65-4.41,4.65s-4.41-1.69-4.41-4.65Zm2.91,9.8c0,1.32.58,1.82,1.5,1.82s1.51-.5,1.51-1.82v-10c0-1.32-.58-1.82-1.51-1.82s-1.5.5-1.5,1.82Z" transform="translate(-15.95 -12.61)"/><path class="cls-3" d="M69.75,225.67c0-3,1.56-4.65,4.41-4.65s4.41,1.69,4.41,4.65v9.61c0,3-1.56,4.65-4.41,4.65s-4.41-1.69-4.41-4.65Zm2.91,9.8c0,1.32.58,1.82,1.5,1.82s1.51-.5,1.51-1.82v-10c0-1.32-.59-1.82-1.51-1.82s-1.5.5-1.5,1.82Z" transform="translate(-15.95 -12.61)"/><path class="cls-3" d="M79.6,221.24h9v2.64h-3v15.84h-2.9V223.88h-3Z" transform="translate(-15.95 -12.61)"/><path class="cls-3" d="M98.53,225.49v.66c0,1.9-.58,3.11-1.87,3.72,1.55.61,2.16,2,2.16,4v1.51c0,2.85-1.5,4.38-4.41,4.38H89.84V221.24h4.39C97.24,221.24,98.53,222.64,98.53,225.49Zm-5.78-1.61v4.88h1.13c1.09,0,1.75-.47,1.75-1.95v-1c0-1.32-.45-1.9-1.48-1.9Zm0,7.52v5.68h1.66c1,0,1.51-.45,1.51-1.82v-1.61c0-1.72-.56-2.25-1.88-2.25Z" transform="translate(-15.95 -12.61)"/><path class="cls-3" d="M110,239.72H107l-.5-3.35H103l-.5,3.35H99.8l3-18.48H107Zm-6.63-5.86h2.8l-1.4-9.35Z" transform="translate(-15.95 -12.61)"/><path class="cls-3" d="M111.31,221.24h2.91v15.84H119v2.64h-7.69Z" transform="translate(-15.95 -12.61)"/><path class="cls-3" d="M120.26,221.24h2.91v15.84H128v2.64h-7.69Z" transform="translate(-15.95 -12.61)"/><polygon class="cls-1" points="28.6 214.02 29.61 216.08 31.89 216.41 30.24 218.02 30.63 220.28 28.6 219.21 26.56 220.28 26.95 218.02 25.3 216.41 27.58 216.08 28.6 214.02"/><polygon class="cls-1" points="113.16 214.02 114.17 216.08 116.45 216.41 114.8 218.02 115.19 220.28 113.16 219.21 111.12 220.28 111.51 218.02 109.86 216.41 112.14 216.08 113.16 214.02"/></svg>